<?xml version="1.0" encoding="utf-8"?>
<!-- Generator: Adobe Illustrator 24.0.1, SVG Export Plug-In . SVG Version: 6.00 Build 0)  -->
<svg version="1.1" id="Layer_1" xmlns="http://www.w3.org/2000/svg" xmlns:xlink="http://www.w3.org/1999/xlink" x="0px" y="0px"
	 viewBox="0 0 512 512" style="enable-background:new 0 0 512 512;" xml:space="preserve">
<style type="text/css">
	.st0{fill:#162E3B;}
</style>
<g>
	<path class="st0" d="M511.692,110.406c-13.978-10.373-38.756-1.254-51.616,1.655c-12.75,2.884-36.793,10.655-49.463,14.258
		c-10.364,2.954-25.833,8.417-36.709,5.19c-5.034-1.429-9.786-3.567-14.932-4.691c-9.252-2.021-19.316-2.238-28.472,0.405
		c-12.179,3.517-22.7,11.202-31.242,20.406c-8.377,9.028-12.878,21.01-21.244,29.758c-7.515,7.858-18.521,16.174-29.956,13.855
		c-23.979-4.862-43.059-20.109-66.085-33.082C35.095,75.405-0.308,135.496-0.308,135.496l4.658,7.22
		c-0.939,5.669-1.789,17.937-1.789,17.937s18.613,12.168,43.789,22.181c-0.095,3.339,0.161,6.742,0.713,12.445
		c10.917,10.605,34.623,24.954,51.938,33.716c-0.796,1.7-1.424,4.527-1.738,8.61c7.079,7.552,23.711,15.868,37.448,20.254
		c0.066,2.422,0.065,5.808-0.185,7.838c0.798,0.869,14.675,9.544,33.651,11.798c-11.013,9.117-25.134,31.382-25.134,31.382
		c-3.807,6.061-8.346,11.669-13.13,17.006c-13.508,15.068-29.14,28.475-43.895,42.291c-15.427,14.446-43.622,40.017-39.453,57.107
		c1.815-0.859,5.735-2.929,9.041-6.243c-1.076,10.764,0.005,13.445,0.216,15.715c11.775-2.673,27.52-12.889,31.476-19.073
		c0.544,1.242,0.861,2.09,1.632,3.724c2.789-1.567,46.389-36.09,57.733-45.764c0.323,0.732,1.022,7.308,1.231,8.694
		c23.796-7.811,35.055-12.596,44.906-22.729c0,0,4.573,1.849,6.066,6.626c23.587-4.479,41.281-10.075,41.281-10.075l7.088,5.895
		c5.066-3.659,9.55-9.458,13.787-20.898c14.406-10.169,40.948-38.34,54.967-76.668c8.162-22.315,26.429-38.137,42.522-54.673
		c13.551-13.924,22.997-31.297,30.555-49.052c3.41-8.01,14.246-13.059,21.428-17.398c18.886-11.411,62.193-22.18,87.996-27.224
		C508.844,114.112,511.478,110.779,511.692,110.406z"/>
</g>
</svg>
