<?xml version="1.0" encoding="utf-8"?>
<!-- Generator: Adobe Illustrator 24.0.1, SVG Export Plug-In . SVG Version: 6.00 Build 0)  -->
<svg version="1.1" id="Layer_1" xmlns="http://www.w3.org/2000/svg" xmlns:xlink="http://www.w3.org/1999/xlink" x="0px" y="0px"
	 viewBox="0 0 99.8 99.8" style="enable-background:new 0 0 99.8 99.8;" xml:space="preserve">
<style type="text/css">
	.st0{fill:#28334A;}
</style>
<g>
	<g>
		<path class="st0" d="M76.78,70.18c-3.93-0.06-5.92-2.05-7.74-4.05c4.25-5,6.35-11.48,5.9-17.93
			c-0.87-12.67-11.11-22.77-23.85-23.36C43.96,24.51,37,27.27,32,32.37c-5,5.1-7.6,11.88-7.11,19.25
			c0.84,12.72,11.4,23.37,25.03,23.36c2.95,0,5.95-0.5,9.02-1.68c0.38-0.15,0.39-0.61,0.21-0.85c-0.62-0.92-1.8-2.15-2.44-2.6
			c-0.53-0.37-1.92-1.38-4.06-1.13c-0.79,0.1-1.31,0.17-2.74,0.17c-10.45,0.01-18.49-8.25-18.98-18.03
			C30.66,45.36,32.8,40,36.79,36.18c3.98-3.81,9.43-5.71,14.94-5.19c8.99,0.84,16.19,7.97,17.08,16.93
			c0.11,1.06,0.14,2.11,0.08,3.16c-0.17,2.56-0.88,6.87-4.63,11.27c-0.7-0.32-1.48-0.44-1.97-0.48c-2.99-0.2-4.49,1.29-5,1.94
			c-0.29,0.38-0.03,0.85,0.4,0.94c0.58,0.11,2.21,0.56,4.34,2.39c0.68,0.6,1.34,1.32,1.96,2.02c2.62,2.98,6.01,6.92,12.78,7.01
			c0,0,0,0,0,0c0.31,0,0.57-0.25,0.57-0.57v-4.86C77.35,70.43,77.09,70.18,76.78,70.18L76.78,70.18z"/>
	</g>
	<path class="st0" d="M0,99.12c0,0.37,0.3,0.68,0.68,0.68h98.45c0.37,0,0.68-0.3,0.68-0.68V0.68C99.8,0.3,99.5,0,99.12,0H0.68
		C0.3,0,0,0.3,0,0.67L0,99.12z M93.99,93.98H5.82V5.82h88.17V93.98z"/>
</g>
</svg>
