<?xml version="1.0" encoding="utf-8"?>
<!-- Generator: Adobe Illustrator 24.0.1, SVG Export Plug-In . SVG Version: 6.00 Build 0)  -->
<svg version="1.1" id="Layer_1" xmlns="http://www.w3.org/2000/svg" xmlns:xlink="http://www.w3.org/1999/xlink" x="0px" y="0px"
	 viewBox="0 0 1744.559 1125.255" style="enable-background:new 0 0 1744.559 1125.255;" xml:space="preserve">
<style type="text/css">
	.st0{fill:#FFFEFD;}
</style>
<g>
	<g>
		<path class="st0" d="M418.988,0c8.516,9.219,12.781,16.031,12.781,20.469c0,15.016-7.516,104.562-22.516,268.656v13.812
			c0,6.828,1.016,19.797,3.078,38.891h-10.75c20.469-2.719,37.859-4.094,52.203-4.094h34.281c0-58.672-6.828-146.172-20.469-262.516
			c4.094-13.641,11.078-21.656,20.984-24.047h6.141c7.156,0,14.141,5.297,20.969,15.859v4.609c0,4.438,1.703,3.766,5.125-2.047
			c-0.344,0,3.922,89.219,12.797,267.625c5.781,0.688,8.688,5.641,8.688,14.844v8.703l-5.625,8.188
			c7.844,79.5,14.484,186.109,19.953,319.828l-21.484,12.781c-17.75-6.125-26.609-15.516-26.609-28.141v-4.094
			c0-8.188-1.375-12.281-4.094-12.281l4.094,8.188c0-70.266-5.812-165.781-17.406-286.562h-45.531
			c-12.281,0-29.344,2.734-51.172,8.188h-6.141c-13.656,0-22.016-27.969-25.078-83.922c0-19.438,7.5-109.5,22.516-270.188
			l-2.562-17.391C394.066,5.125,406.02,0,418.988,0z"/>
		<path class="st0" d="M777.677,5.125c33.438,0,65.5,21.156,96.203,63.453c21.156,46.734,31.734,104.047,31.734,171.938
			c3.75,17.75,7.156,83.078,10.234,195.984c-1.375,31.391-2.047,67.891-2.047,109.5c0,66.188-24.734,110.719-74.203,133.562
			l-24.047,2.562h-4.609c-22.516,0-48.609-17.047-78.297-51.172c-43.672-59.016-65.5-207.922-65.5-446.734
			c0-41.609,17.391-96.188,52.203-163.75C742.536,11.938,761.989,6.828,777.677,5.125z M713.208,185.75v28.156
			c0,149.422,12.781,270.188,38.375,362.297c18.422,37.875,38.891,60.219,61.406,67.031h4.094c26.609,0,43.5-30.188,50.656-90.578
			v-1.531c0-34.797,0.672-71.812,2.047-111.047c0-159.656-10.75-274.281-32.234-343.875c-19.781-33.422-42.469-50.141-68.062-50.141
			c0-1.359,3.234-2.047,9.734-2.047c-24.906,9.891-37.359,20.641-37.359,32.234C722.755,123,713.208,159.5,713.208,185.75z"/>
		<path class="st0" d="M1094.425,0c8.516,9.219,12.781,16.031,12.781,20.469c0,15.016-7.516,104.562-22.516,268.656v13.812
			c0,6.828,1.016,19.797,3.078,38.891h-10.75c20.469-2.719,37.859-4.094,52.203-4.094h34.281c0-58.672-6.828-146.172-20.469-262.516
			c4.094-13.641,11.078-21.656,20.984-24.047h6.141c7.156,0,14.141,5.297,20.969,15.859v4.609c0,4.438,1.703,3.766,5.125-2.047
			c-0.344,0,3.922,89.219,12.797,267.625c5.781,0.688,8.688,5.641,8.688,14.844v8.703l-5.625,8.188
			c7.844,79.5,14.484,186.109,19.953,319.828l-21.484,12.781c-17.75-6.125-26.609-15.516-26.609-28.141v-4.094
			c0-8.188-1.375-12.281-4.094-12.281l4.094,8.188c0-70.266-5.812-165.781-17.406-286.562h-45.531
			c-12.281,0-29.344,2.734-51.172,8.188h-6.141c-13.656,0-22.016-27.969-25.078-83.922c0-19.438,7.5-109.5,22.516-270.188
			l-2.562-17.391C1069.503,5.125,1081.456,0,1094.425,0z"/>
	</g>
	<g>
		<path class="st0" d="M16.403,796.729c25.461,1.252,45.302,1.874,59.519,1.874l4.218,6.327c0,8.282-3.906,12.419-11.716,12.419
			c-16.092-0.622-31.792-0.937-47.1-0.937l4.452,112.477v0.702l0.469,6.093c5.777-0.779,13.356-1.172,22.729-1.172h24.37
			c4.686,0,7.651,3.984,8.904,11.951l-8.437,6.795H45.226c-11.717,0-17.575-0.311-17.575-0.937v10.31
			c0,9.062,0.623,46.555,1.875,112.477v10.076l0.938,5.624c0,3.907-0.158,5.858-0.469,5.858l0.469,4.452v10.545
			c0,2.5-2.344,5.001-7.03,7.498H18.98c-3.438,0-6.642-2.42-9.607-7.264L5.858,918.579l-3.983-9.373l1.874,3.749
			C1.249,863.436,0,826.488,0,802.119C4.998,798.527,10.464,796.729,16.403,796.729z"/>
		<path class="st0" d="M174.104,791.34l2.109,1.172c-4.376,0-6.562-0.469-6.562-1.406c27.805,2.501,41.71,6.407,41.71,11.717v1.64
			c-2.032,5.781-5.704,8.67-11.014,8.67l-27.182-2.812c-1.252,0-5.235,0.234-11.95,0.703l0.469,6.561
			c0,10.311,1.482,50.069,4.452,119.272h0.938c4.528,0,8.436-0.312,11.716-0.938c14.682,1.252,26.244,1.875,34.681,1.875
			l5.389,7.264v3.983c0,5.002-3.203,7.499-9.606,7.499c-5.624,0-14.687-0.623-27.183-1.875c-8.281,0.626-13.514,0.938-15.699,0.938
			v-0.938c0,44.054,2.108,93.419,6.326,148.095c0.78,0,1.172,0.234,1.172,0.702c19.526-1.091,32.022-1.64,37.492-1.64
			c4.841,1.563,8.278,4.375,10.311,8.436v1.875c0,2.5-2.501,5.312-7.498,8.436c-24.839,0.622-39.759,1.248-44.757,1.874
			c-11.716,0-17.574-5.543-17.574-16.637c-4.376-59.673-6.562-109.431-6.562-149.266v-29.994
			c-3.127-54.986-4.687-92.01-4.687-111.07c-1.874-9.373-2.812-15.231-2.812-17.574l7.264-5.39h12.654
			C161.136,792.512,166.606,792.123,174.104,791.34z"/>
		<path class="st0" d="M308.842,791.34l2.109,1.172c-4.376,0-6.562-0.469-6.562-1.406c27.805,2.501,41.71,6.407,41.71,11.717v1.64
			c-2.032,5.781-5.704,8.67-11.014,8.67l-27.182-2.812c-1.252,0-5.235,0.234-11.95,0.703l0.469,6.561
			c0,10.311,1.482,50.069,4.452,119.272h0.938c4.528,0,8.436-0.312,11.716-0.938c14.682,1.252,26.244,1.875,34.681,1.875
			l5.389,7.264v3.983c0,5.002-3.203,7.499-9.606,7.499c-5.624,0-14.687-0.623-27.183-1.875c-8.281,0.626-13.514,0.938-15.699,0.938
			v-0.938c0,44.054,2.108,93.419,6.326,148.095c0.78,0,1.172,0.234,1.172,0.702c19.526-1.091,32.022-1.64,37.492-1.64
			c4.841,1.563,8.278,4.375,10.311,8.436v1.875c0,2.5-2.501,5.312-7.498,8.436c-24.839,0.622-39.759,1.248-44.757,1.874
			c-11.716,0-17.574-5.543-17.574-16.637c-4.376-59.673-6.562-109.431-6.562-149.266v-29.994
			c-3.127-54.986-4.687-92.01-4.687-111.07c-1.874-9.373-2.812-15.231-2.812-17.574l7.264-5.39h12.654
			C295.873,792.512,301.344,792.123,308.842,791.34z"/>
		<path class="st0" d="M413.351,778.218h0.938c3.435,0,6.639,2.424,9.607,7.264c0,7.03,0.312,10.545,0.938,10.545l-1.875-3.749
			c4.372,68.738,6.562,126.459,6.562,173.167c1.875,15.154,2.812,36.167,2.812,63.033v76.859h44.757c3.592,0,6.48,2.189,8.67,6.562
			v3.749c0,5.624-7.264,8.436-21.792,8.436H420.85c-3.28,0-6.484-2.424-9.607-7.264v-6.796c0-7.498,0.153-11.248,0.469-11.248
			l-0.469-6.326v-68.658c-2.501-82.168-5.001-150.514-7.498-205.035l-2.812-31.634C402.807,781.187,406.943,778.218,413.351,778.218
			z"/>
		<path class="st0" d="M557.462,796.026h3.75c8.278,0,12.419,18.124,12.419,54.363v12.186c0,12.342-1.875,43.977-5.624,94.902
			c0,2.031,0.312,4.298,0.938,6.795c-0.626,32.963-0.938,59.05-0.938,78.265v60.925c0,0.938,0.623,3.984,1.875,9.139
			c-1.252,7.652-4.452,11.482-9.607,11.482h-3.749c-6.407,0-9.607-9.995-9.607-29.994c0-108.569,1.874-183.319,5.624-224.25v-26.01
			c0-14.371-0.938-27.416-2.812-39.133C549.729,802.042,552.308,799.153,557.462,796.026z"/>
		<path class="st0" d="M643.226,791.105c6.562,0,22.649,43.899,48.271,131.691c3.592,19.998,18.277,69.283,44.054,147.859h-7.733
			v-3.28c-3.595-75.922-5.39-118.569-5.39-127.942c0-2.812,0.389-12.338,1.172-28.588c-0.157-1.717-0.234-5.466-0.234-11.247
			c1.249-12.339,1.875-22.104,1.875-29.291v-66.783c0.779-6.561,4.998-9.841,12.653-9.841l9.842,5.154
			c-1.874,37.023-2.812,64.44-2.812,82.249v26.479c0,54.364,1.717,125.364,5.155,213.003l-9.373,4.687
			c-7.813,0-32.418-70.452-73.813-211.362l-24.604-83.889l8.67,14.06l0.703-13.591c1.091,12.968,1.64,23.278,1.64,30.931
			l0.234,7.967c-1.252,34.681-1.874,58.974-1.874,72.876c0,69.829,2.812,129.037,8.436,177.619h-11.717
			c-7.345,0-11.013-3.28-11.013-9.842c-3.596-54.518-5.39-103.338-5.39-146.454V800.947
			C633.069,794.386,636.818,791.105,643.226,791.105z"/>
		<path class="st0" d="M847.558,807.274h2.109c14.06,0,25.384,5.47,33.977,16.402v3.28c0,2.501-2.577,5.313-7.732,8.437
			c-3.906,0-9.688-2.421-17.34-7.265c-2.812-1.406-6.093-2.108-9.842-2.108h-2.812c-15.465,3.749-23.198,55.615-23.198,155.592
			c0,47.803,5.544,84.123,16.638,108.962c2.966,6.407,8.747,11.328,17.34,14.763h1.641c7.81-1.56,11.716-6.246,11.716-14.06
			c2.497,0,5.624-17.26,9.373-51.786v-45.459v-0.234c6.562,0,9.842,0.469,9.842,1.405c-32.806-2.496-49.208-6.012-49.208-10.544
			l-0.938-4.687v-1.172c0-2.654,2.343-5.155,7.029-7.498h6.796c2.186,1.721,15.854,3.672,41.007,5.857
			c4.372,4.376,6.562,11.797,6.562,22.262v23.433c0,3.749-0.315,8.516-0.938,14.294c0.622,1.095,0.938,2.343,0.938,3.749
			c-4.533,52.335-11.717,78.499-21.559,78.499c0,0.622-6.407,2.186-19.215,4.687h-5.155c-12.185-2.812-22.729-9.607-31.634-20.387
			c-14.217-26.866-21.323-67.874-21.323-123.021c0-104.821,11.636-162.231,34.914-172.23L847.558,807.274z"/>
		<path class="st0" d="M1098.286,778.218h0.938c3.435,0,6.639,2.424,9.607,7.264c0,7.03,0.312,10.545,0.938,10.545l-1.875-3.749
			c4.372,68.738,6.562,126.459,6.562,173.167c1.875,15.154,2.812,36.167,2.812,63.033v76.859h44.757c3.592,0,6.48,2.189,8.67,6.562
			v3.749c0,5.624-7.264,8.436-21.792,8.436h-43.116c-3.28,0-6.484-2.424-9.607-7.264v-6.796c0-7.498,0.153-11.248,0.469-11.248
			l-0.469-6.326v-68.658c-2.501-82.168-5.001-150.514-7.498-205.035l-2.812-31.634
			C1087.742,781.187,1091.879,778.218,1098.286,778.218z"/>
		<path class="st0" d="M1265.596,793.215c21.243,0,37.258,43.584,48.036,130.754c0.623,8.281,0.938,18.746,0.938,31.399v3.749
			c0,2.501-0.234,5.002-0.703,7.499c0.469,0.626,0.703,3.126,0.703,7.498v0.938c0,4.375-0.234,6.876-0.703,7.498
			c0.469,2.501,0.703,4.064,0.703,4.687c0,67.175-9.842,109.042-29.525,125.599c-7.967,3.127-13.514,4.687-16.637,4.687h-7.498
			c-25.465-6.092-41.165-36.632-47.1-91.621l-2.812-38.43c0-88.729,11.325-150.672,33.978-185.82
			C1252.473,796.026,1259.346,793.215,1265.596,793.215z M1232.087,984.425c0,34.838,4.605,65.3,13.825,91.387
			c7.652,15.312,13.591,22.964,17.809,22.964h0.938c9.373,0,15.619-7.575,18.746-22.729c6.715-15.934,10.076-50.223,10.076-102.869
			v-18.746c0-36.397-6.484-78.185-19.449-125.364c-4.218-9.373-7.345-14.763-9.373-16.169c-3.438,1.253-5.624,3.281-6.562,6.093
			C1240.757,855.703,1232.087,910.846,1232.087,984.425z"/>
		<path class="st0" d="M1424.469,798.136l5.39,6.795v3.046c0,2.189-2.812,5.236-8.437,9.139h-11.481
			c-13.906,0-23.279,5.079-28.119,15.231c-4.844,13.122-7.265,27.809-7.265,44.054c0,9.842,4.295,26.091,12.889,48.739
			c2.812,5.624,19.368,22.185,49.677,49.678c16.403,23.433,24.604,46.477,24.604,69.126c0,17.809-3.83,35.229-11.482,52.255
			c-4.063,9.219-14.374,16.871-30.931,22.964c-6.25,3.28-11.562,4.921-15.935,4.921c-5.938,0-10.076-2.501-12.419-7.498v-3.281
			c0-4.528,4.84-7.264,14.528-8.201c17.809-6.715,26.713-13.668,26.713-20.854c5.624-11.248,8.436-25.542,8.436-42.882
			c0-22.649-10.156-44.757-30.462-66.314c-16.872-12.808-29.525-25.227-37.961-37.258c-6.093-6.562-12.031-23.353-17.809-50.38
			c0-3.281-0.315-7.418-0.938-12.42c0-20.774,3.903-39.286,11.716-55.535C1375.025,805.246,1394.786,798.136,1424.469,798.136z"/>
		<path class="st0" d="M1595.996,809.148l6.093,7.03v3.749c0,5.781-10.702,8.67-32.104,8.67h-26.244
			c1.875,0,2.889-0.234,3.046-0.703l1.875,42.413c-0.626,3.907-0.938,6.016-0.938,6.327c5.624,94.514,8.436,161.919,8.436,202.224
			c0.623,1.095,0.938,2.658,0.938,4.687c-0.626,0.937-0.938,1.252-0.938,0.937l1.172,6.327c-2.189,5.002-5.155,7.498-8.904,7.498
			h-3.749c-2.658,0-5.858-2.186-9.607-6.561c0-2.186,0.312-5.701,0.938-10.545c0-13.276-2.812-80.685-8.436-202.224
			c0-19.683-0.55-36.866-1.641-51.552l2.108,1.172h-0.937l-32.806,2.812c-4.064-4.371-6.093-8.436-6.093-12.185
			c0-2.654,2.966-5.467,8.904-8.436c5.467,1.406,8.121,2.108,7.967,2.108c12.027-1.091,20.54-1.64,25.542-1.64h38.43
			C1576.701,811.258,1585.686,810.555,1595.996,809.148z"/>
		<path class="st0" d="M1690.897,797.901c14.06,0,27.183,5.938,39.367,17.809c9.527,12.031,14.294,23.278,14.294,33.743v6.561
			c0,32.026-8.904,62.646-26.713,91.856c-4.687,9.688-7.03,25.229-7.03,46.631c1.249,10.31,1.875,18.512,1.875,24.604v10.311
			c0,5.155-2.735,8.904-8.201,11.248h-4.219c-5.154,0-8.047-2.731-8.67-8.201c0-3.75,0.312-6.093,0.938-7.03
			c0,0.157-0.938-9.995-2.812-30.462c0-32.338,6.403-57.096,19.215-74.282c10.31-21.869,15.465-44.053,15.465-66.548
			c0-12.028-5.47-22.649-16.402-31.869c-8.282-3.749-14.294-5.623-18.043-5.623c-16.718,4.532-25.073,11.716-25.073,21.558v7.264
			l2.812,3.75v2.108c0,5.155-2.734,8.904-8.201,11.248h-6.795c-5.939-2.966-8.904-7.03-8.904-12.186v-13.122
			c0-18.12,14.136-31.242,42.412-39.366H1690.897z M1698.396,1093.152h4.687c2.966,0,6.48,2.734,10.545,8.201v5.858
			c0,8.124-4.452,12.185-13.357,12.185c-8.593,0-13.356-4.687-14.294-14.06C1686.6,1101.588,1690.74,1097.527,1698.396,1093.152z"/>
	</g>
</g>
</svg>
