<?xml version="1.0" encoding="utf-8"?>
<!-- Generator: Adobe Illustrator 19.2.0, SVG Export Plug-In . SVG Version: 6.00 Build 0)  -->
<svg version="1.1" id="Layer_1" xmlns="http://www.w3.org/2000/svg" xmlns:xlink="http://www.w3.org/1999/xlink" x="0px" y="0px"
	 viewBox="0 0 14 14" style="enable-background:new 0 0 14 14;" xml:space="preserve">
<style type="text/css">
	.st0{clip-path:url(#SVGID_2_);fill:#162E3B;}
	.st1{fill:#162E3B;}
	.st2{fill:#FFBF15;}
	.st3{fill:#FFFFFF;}
</style>
<g>
	<path class="st1" d="M5.6,6.2c0.2-0.1,0.2-0.3,0.2-0.5c0-0.3-0.1-0.5-0.3-0.6C5.3,5,5.1,5,4.8,5H3.6v1.4h1.3
		C5.2,6.3,5.4,6.3,5.6,6.2z"/>
	<path class="st1" d="M5.6,7.5C5.4,7.4,5.2,7.4,4.9,7.4H3.6V9h1.3c0.3,0,0.5,0,0.6-0.1C5.8,8.8,6,8.5,6,8.1C6,7.8,5.8,7.6,5.6,7.5z"
		/>
	<path class="st1" d="M10.9,7.2c0-0.3-0.1-0.5-0.3-0.7c-0.2-0.2-0.4-0.2-0.7-0.2c-0.3,0-0.5,0.1-0.7,0.3C9.1,6.7,9,7,8.9,7.2
		L10.9,7.2L10.9,7.2z"/>
	<path class="st1" d="M7,0C3.1,0,0,3.1,0,7c0,3.9,3.1,7,7,7c3.9,0,7-3.1,7-7C14,3.1,10.9,0,7,0z M8.7,4.2h2.5v0.6H8.7V4.2z M7,9.2
		C6.9,9.4,6.7,9.6,6.5,9.7C6.3,9.8,6.1,9.9,5.8,10c-0.3,0.1-0.6,0.1-0.9,0.1H2.2V3.9h3c0.7,0,1.3,0.2,1.6,0.7C7,4.8,7.1,5.2,7.1,5.5
		c0,0.4-0.1,0.7-0.3,0.9C6.7,6.6,6.5,6.7,6.3,6.8C6.6,6.9,6.9,7.1,7,7.3c0.2,0.2,0.2,0.5,0.2,0.9C7.3,8.6,7.2,8.9,7,9.2z M11.6,9.4
		C11.2,9.8,10.7,10,10,10c-0.6,0-1.1-0.2-1.6-0.5C8,9.1,7.7,8.5,7.7,7.7C7.7,7,7.9,6.4,8.3,6c0.4-0.4,0.9-0.6,1.6-0.6
		c0.4,0,0.7,0.1,1,0.2c0.3,0.1,0.6,0.4,0.8,0.7c0.2,0.3,0.3,0.6,0.4,0.9c0,0.2,0,0.5,0,0.9H8.9c0,0.4,0.2,0.8,0.5,0.9
		C9.5,9,9.7,9.1,10,9.1c0.3,0,0.5-0.1,0.6-0.2c0.1-0.1,0.2-0.2,0.2-0.3H12C12,8.9,11.9,9.1,11.6,9.4z"/>
</g>
</svg>
