<?xml version="1.0" encoding="utf-8"?>
<!-- Generator: Adobe Illustrator 19.2.0, SVG Export Plug-In . SVG Version: 6.00 Build 0)  -->
<svg version="1.1" id="Layer_1" xmlns="http://www.w3.org/2000/svg" xmlns:xlink="http://www.w3.org/1999/xlink" x="0px" y="0px"
	 viewBox="0 0 30 19.5" style="enable-background:new 0 0 30 19.5;" xml:space="preserve">
<style type="text/css">
	.st0{fill:#162E3B;}
</style>
<g id="Elements">
	<g id="colibri">
		<path class="st0" d="M30,0.2C30,0.2,30,0.2,30,0.2L30,0.2C30,0.2,30,0.2,30,0.2C30,0.2,30,0.2,30,0.2L30,0.2
			C29.9,0.2,29.9,0.2,30,0.2C29.9,0.2,29.9,0.2,30,0.2c-0.1,0-0.1-0.1-0.1-0.1c0,0,0,0,0,0C29.9,0.2,29.9,0.2,30,0.2
			c-0.7-0.4-1.4-0.2-2.1-0.1c-0.5,0.1-1.1,0.2-1.6,0.3c-0.7,0.2-1.5,0.5-2.2,0.7c-0.6,0.2-1.5,0.5-2.1,0.3c-0.2,0-0.3-0.1-0.5-0.2
			c-0.2-0.1-0.5-0.1-0.7-0.2c0,0,0-0.1,0-0.1c-0.1,0.1-0.2,0.1-0.2,0.1c0,0,0.1-0.1,0.1-0.1c-0.1,0.1-0.3,0-0.5,0
			c-0.3,0-0.6,0-0.9,0.1c-0.5,0.1-1,0.4-1.3,0.8c-0.4,0.3-0.7,0.6-0.9,1c-0.3,0.4-0.5,0.8-0.8,1.1c-0.4,0.4-1,0.8-1.6,0.9
			c-0.4,0-0.7-0.2-1-0.4c-0.4-0.1-0.7-0.2-1.1-0.4c-0.7-0.3-1.3-0.8-2-1.2C9,2,6.9,1,4.9,0.7C4,0.6,3,0.5,2,0.6
			C1.3,0.7,0.8,0.9,0.3,1.4c0,0-0.1,0-0.1,0.1c0,0,0,0-0.1,0.1C0.1,1.6,0,1.7,0,1.8C0,2,0.2,2.1,0.2,2.1c-0.1,0.3,0,0.6,0,0.6
			s0,0,0.1,0.2C0.4,3.1,0.7,3.4,1,3.5c0,0,0,0,0,0C0.9,3.8,1.6,4.2,1.8,4.3c0.1,0.1,0.3,0.1,0.5,0.1c0,0,0,0,0,0
			C2.2,4.6,2.4,4.8,2.6,4.9c0,0.4,0,0.4,0.3,0.7c0.2,0.2,0.3,0.3,0.6,0.3c0.1,0,0.4,0.5,0.5,0.6c0.2,0.2,0.5,0.2,0.8,0.3
			c0,0.3,0.6,0.6,0.9,0.6c0,0.4,0.7,0.7,1.1,0.7c0,0,0,0,0,0c0.2,0.3,0.4,0.5,0.7,0.7c0.1,0.1,0.4,0.1,0.5,0.1C8,9,7.9,9.1,8,9.2
			c0.1,0.2,1.1,0.6,1.2,0.4c0,0,0,0,0,0c0,0.1,0.1,0.2,0.2,0.3c0,0,0,0,0,0c0,0,0,0,0,0c0.1,0.1,0.3,0.1,0.4,0.1
			c-0.6,0.5-1.5,1.8-1.5,1.8c-0.2,0.4-0.5,0.7-0.8,1c-0.1,0.2-0.3,0.3-0.4,0.5C7.1,13.4,7,13.5,7,13.6c0,0-0.1,0.2-0.1,0.1
			c0,0-0.1-0.1-0.1-0.1c0,0,0,0.1,0,0.1c0,0,0,0,0,0c0,0,0,0.1-0.1,0.1c0,0,0-0.1,0-0.1c0,0.1,0,0.1,0,0.2c0,0-0.1,0-0.1,0
			c0,0,0,0,0,0.1c0,0-0.1,0-0.1,0c0,0,0,0,0,0.1c0,0,0,0-0.1,0c0,0,0,0.1,0,0.1c0,0,0,0,0,0c0,0,0,0.1,0,0.1c0,0-0.1,0-0.1,0
			c0,0,0,0.1,0,0.1c0,0-0.1,0-0.1-0.1c0,0.1,0,0.1-0.1,0.2c0,0,0,0,0-0.1c0,0-0.1,0.1-0.1,0.2c0,0,0-0.1,0-0.1
			c0,0.1-0.2,0.2-0.3,0.3c-0.1,0.1-0.2,0.2-0.3,0.3C5.3,15,5.2,15.2,5,15.4c-0.3,0.3-0.5,0.5-0.8,0.8c-0.1,0.1-0.2,0.1-0.2,0.2
			c0,0-0.1,0.1-0.1,0.1c-0.1,0.1-0.1,0.2-0.2,0.3c-0.1,0.1-0.2,0.2-0.3,0.3c0,0,0,0-0.1,0.1c0,0,0,0,0,0c0,0,0,0,0,0c0,0,0,0,0,0
			c0,0,0,0,0,0l0,0c0.1,0.1-0.4,0.3-0.4,0.6c-0.1,0.3-0.1,0.5-0.1,0.5L3,18.1c0,0,0,0,0,0.1c0,0,0,0,0,0c0,0,0,0,0,0c0,0,0,0,0,0
			c0,0.1-0.1,0.3-0.2,0.3c0.1,0,0.4,0.2,0.1,0.3c0,0,0.1,0,0.1,0c0,0-0.1,0.1-0.1,0.1c0,0,0,0,0.1,0c-0.1,0-0.2,0.1-0.2,0.1
			c0.1,0,0.1,0,0.1,0c0,0,0,0,0,0c0,0-0.1,0.1-0.2,0.1c0,0,0.1,0,0.1,0c0,0.1-0.1,0.1-0.1,0.2c0,0,0.2,0.1,0.2,0.1
			c0,0.1-0.1,0.1,0,0.2c0,0,0.1-0.1,0.1-0.1c0,0,0,0.1,0,0.1c0,0,0-0.1,0-0.1v0c0,0,0,0,0,0c0,0,0,0,0,0c0,0,0,0,0.1-0.1
			c0,0.1,0,0.1,0.1,0.2c0-0.1,0-0.1,0-0.1c0,0,0,0,0,0.1c0-0.1,0.1-0.2,0.1-0.2c0,0.1,0.1,0.1,0.1,0.2c0,0,0,0.1,0,0.1
			c0,0,0.1,0,0.1-0.1c0,0,0,0.1,0,0.1c0,0,0-0.1,0-0.2c0,0.1,0.1,0.1,0.1,0.2c0-0.1,0-0.1,0-0.2c0,0,0,0.1,0.1,0.1c0,0,0-0.1,0-0.1
			c0,0,0.1,0.1,0.1,0.1c0-0.1,0.2-0.3,0.3-0.4c0,0.1,0,0.1,0.1,0.2c0-0.1,0-0.2,0-0.3c0.1,0,0.3-0.1,0.4-0.2c0.1,0,0.3-0.2,0.3-0.1
			c0-0.1,0-0.1,0-0.2c0,0,0,0.1,0.1,0.1c0,0,0-0.1,0-0.1c0,0,0.1,0.1,0.1,0.1c0-0.1,0-0.2,0-0.2c0,0,0,0,0,0.1c0,0,0-0.1,0.1-0.1
			c0,0.1,0,0.1,0.1,0.1c0-0.1,0-0.2,0.1-0.2c0.1-0.1,0.2-0.1,0.3-0.2c0.1-0.1,0.2-0.2,0.3-0.3c0.3-0.2,0.6-0.5,1-0.7
			c0.5-0.4,1.1-0.8,1.6-1.3c0,0,0,0,0,0c0,0,0,0,0,0c0,0,0,0,0,0c0,0,0.1,0.2,0.1,0.2c0-0.1,0.1-0.1,0.1-0.2c0,0.1,0,0,0.1,0.1
			c0,0,0.1-0.2,0.2-0.2c0,0,0,0,0,0c0,0.1,0,0.2,0.1,0.3c0.1-0.1,0.2-0.3,0.3-0.1c0-0.1,0.1-0.1,0.2-0.2c0,0.1,0,0.1,0,0.2
			c0-0.1,0.2-0.2,0.2-0.3c0,0,0,0.1,0,0.2c0,0,0.1-0.1,0.1-0.1c0,0.1,0.1,0.1,0.1,0.1c0.1-0.2,0.3-0.4,0.5-0.4c0,0,0,0,0,0
			c0,0.1,0,0.2-0.1,0.2c0,0,0.1-0.1,0.1-0.1c0,0.1,0,0.2,0,0.2c0.1,0,0.1-0.1,0.2-0.1c0,0.1,0,0.2,0,0.2c0.1-0.1,0.3-0.3,0.4-0.4
			c0,0,0.1-0.1,0.1-0.1c0,0,0,0,0.1-0.1c0,0.1,0,0.1,0,0.2c0.1-0.1,0.1-0.2,0.3-0.2c0,0,0.1,0.1,0.1,0.1c0-0.2,0.1-0.4,0.1-0.6
			c0,0.1,0,0.1,0.1,0.2c0,0,0,0,0-0.1c0,0.1,0.1,0.2,0.1,0.2c0,0,0,0,0-0.1c0.1,0.1,0.1,0.3,0.2,0.5c0-0.1,0.1-0.1,0.1-0.2
			c0,0,0,0.1,0,0.1c0-0.1,0.1-0.1,0.1-0.1c0,0,0.1,0.1,0.1,0.1c0-0.1,0.1-0.2,0.2-0.2c0,0.2,0,0.4,0.1,0.5c0-0.2,0.1-0.5,0.2-0.7
			c0,0,0,0,0,0c0,0.1,0,0.2,0.1,0.3c0-0.1,0.1-0.1,0.1-0.2c0,0,0,0.1,0.1,0.1c0.1-0.1,0.1-0.2,0.2-0.4c0.3,0,0.6,0.5,0.8,0.6
			c0,0,0-0.1,0.1-0.1c0.3,0.2,0.5-0.2,0.6-0.5c0,0,0,0,0,0c0-0.1,0.1-0.3,0.1-0.4c0,0-0.1-0.2-0.1-0.3c0-0.1,0.1-0.1,0.1-0.2
			c0.2,0.1,0.1,0.2,0.1,0.3c0.1-0.3,0.2-0.5,0.3-0.7c0,0,0,0.1,0,0.1c0.1-0.1,0.1-0.2,0.2-0.3c0,0,0.1,0.1,0.1,0.1
			c0-0.2,0.1-0.2,0.2-0.1c0-0.1,0-0.1,0-0.2c0,0,0.1,0,0.1,0.1c0-0.1,0-0.1,0-0.2c0,0,0.1,0.1,0.1,0.1c-0.1-0.5,0.7-1.2,1-1.4
			c0.5-0.4,1.1-1.9,1.2-2.2c0.1-0.4,0.5-0.7,0.7-1.1c0,0.1,0,0.1,0,0.1c0-0.1,0-0.2,0-0.2c0,0,0.1,0.1,0.1,0.1
			c0-0.3,0.3-0.6,0.5-0.8c0.2-0.3,0.4-0.7,0.8-0.9c0.3-0.2,0.6-0.6,0.8-0.9c0.3-0.3,0.3-0.5,0.5-0.9c0,0,0.1,0.1,0.1,0.1
			c0,0,0-0.1,0-0.1c0,0,0,0,0.1,0c0,0,0,0,0-0.1c0,0,0.1,0,0.1,0c0-0.1,0-0.1,0-0.2c0,0,0,0,0.1,0.1c0-0.1,0-0.1,0-0.2
			c0,0,0,0,0.1,0.1c0-0.1,0-0.2,0.1-0.2c0,0,0,0.1,0.1,0.1c0-0.1,0-0.2,0-0.4c0,0,0,0,0,0c0-0.1,0-0.1,0-0.2c0,0,0,0,0.1,0.1
			c0-0.1,0-0.2,0-0.3c0,0,0,0,0,0c0,0,0.1,0,0.1,0c0,0,0,0,0-0.1c0.1,0,0.2,0.1,0.2,0.2c0-0.2-0.1-0.3,0-0.5c0.2-0.5,0.8-0.7,1.3-1
			c0.5-0.3,1-0.5,1.5-0.7c0.6-0.2,1.1-0.3,1.7-0.5c0.5-0.1,0.9-0.2,1.4-0.3c0.2-0.1,0.5-0.1,0.8-0.2c0,0,0,0,0,0c0,0,0,0,0,0h0
			c0.1,0,0.2-0.1,0.2-0.1C29.8,0.4,29.9,0.4,30,0.2C30,0.3,30,0.3,30,0.2C30,0.3,30,0.3,30,0.2C30,0.3,30,0.3,30,0.2L30,0.2L30,0.2z
			 M3.6,16.9C3.6,16.9,3.6,16.9,3.6,16.9C3.5,16.9,3.5,16.9,3.6,16.9C3.5,17,3.5,17,3.4,17c0.1-0.1,0.2-0.2,0.2-0.3
			C3.6,16.8,3.6,16.9,3.6,16.9z M29,0.1c-0.1,0-0.2,0-0.3,0c0,0-0.1,0-0.1,0C28.7,0.1,28.8,0.1,29,0.1C29,0.1,29,0.1,29,0.1z"/>
	</g>
</g>
</svg>
