<?xml version="1.0" encoding="utf-8"?>
<!-- Generator: Adobe Illustrator 19.2.0, SVG Export Plug-In . SVG Version: 6.00 Build 0)  -->
<svg version="1.1" id="Layer_1" xmlns="http://www.w3.org/2000/svg" xmlns:xlink="http://www.w3.org/1999/xlink" x="0px" y="0px"
	 viewBox="0 0 14 14" style="enable-background:new 0 0 14 14;" xml:space="preserve">
<style type="text/css">
	.st0{clip-path:url(#SVGID_2_);fill:#162E3B;}
	.st1{fill:#162E3B;}
	.st2{fill:#FFBF15;}
	.st3{fill:#FFFFFF;}
</style>
<g>
	<path class="st1" d="M7,0C3.1,0,0,3.1,0,7c0,3.9,3.1,7,7,7c3.9,0,7-3.1,7-7C14,3.1,10.9,0,7,0z M11,10.7c0,0.2-0.2,0.4-0.4,0.4H3.3
		C3.1,11,3,10.9,3,10.7V3.3C3,3.1,3.1,3,3.3,3h7.3C10.9,3,11,3.1,11,3.3V10.7z"/>
	<path class="st1" d="M5.8,8.3C5.6,8.4,5.5,8.5,5.2,8.5c-0.1,0-0.3,0-0.4-0.1C4.8,8.3,4.7,8.2,4.6,8.1C4.6,8,4.5,7.9,4.5,7.8
		c0-0.1,0-0.3,0-0.4c0-0.1,0-0.3,0-0.4c0-0.1,0.1-0.3,0.1-0.4c0.1-0.1,0.1-0.2,0.2-0.3C5,6.3,5.1,6.3,5.3,6.3c0.4,0,0.6,0.2,0.7,0.6
		v0h0.9c0-0.2-0.1-0.4-0.2-0.6C6.6,6.1,6.5,6,6.4,5.9C6.2,5.8,6,5.7,5.9,5.7C5.7,5.6,5.5,5.6,5.3,5.6c-0.3,0-0.5,0-0.7,0.1
		C4.3,5.8,4.1,5.9,4,6.1C3.8,6.3,3.7,6.5,3.6,6.7C3.6,6.9,3.5,7.2,3.5,7.4c0,0.3,0,0.5,0.1,0.7C3.7,8.3,3.8,8.5,4,8.7
		C4.1,8.8,4.3,9,4.5,9C4.8,9.1,5,9.2,5.2,9.2c0.5,0,0.8-0.1,1.1-0.4c0.3-0.2,0.5-0.6,0.5-1H6C6,8,5.9,8.2,5.8,8.3z"/>
	<polygon class="st1" points="8.8,8 8.8,8 8.1,5.7 7.1,5.7 8.3,9.1 9.3,9.1 10.5,5.7 9.5,5.7 	"/>
	<polygon class="st1" points="10.7,5.3 10.7,3.3 8.7,3.3 	"/>
</g>
</svg>
