<?xml version="1.0" encoding="utf-8"?>
<!-- Generator: Adobe Illustrator 19.2.0, SVG Export Plug-In . SVG Version: 6.00 Build 0)  -->
<svg version="1.1" id="Layer_1" xmlns="http://www.w3.org/2000/svg" xmlns:xlink="http://www.w3.org/1999/xlink" x="0px" y="0px"
	 viewBox="0 0 13.7 13.7" style="enable-background:new 0 0 13.7 13.7;" xml:space="preserve">
<style type="text/css">
	.st0{clip-path:url(#SVGID_2_);fill:#162E3B;}
	.st1{fill:#162E3B;}
	.st2{fill:#FFBF15;}
	.st3{fill:#FFFFFF;}
</style>
<g>
	<path class="st1" d="M6.9,0C3.1,0,0,3.1,0,6.9c0,3.8,3.1,6.9,6.9,6.9c3.8,0,6.9-3.1,6.9-6.9C13.7,3.1,10.6,0,6.9,0z M4.7,10.7H2.9
		V5.5h1.7V10.7z M3.8,4.8L3.8,4.8c-0.6,0-1-0.4-1-0.9c0-0.5,0.4-0.9,1-0.9c0.6,0,1,0.4,1,0.9C4.8,4.4,4.4,4.8,3.8,4.8z M10.9,10.7
		H9.2V7.9c0-0.7-0.2-1.2-0.9-1.2c-0.5,0-0.8,0.3-0.9,0.6c0,0.1-0.1,0.3-0.1,0.4v2.9H5.6c0,0,0-4.7,0-5.2h1.7v0.7
		C7.6,5.9,8,5.4,8.9,5.4c1.1,0,2,0.7,2,2.3V10.7z"/>
</g>
</svg>
