<?xml version="1.0" encoding="utf-8"?>
<!-- Generator: Adobe Illustrator 19.2.0, SVG Export Plug-In . SVG Version: 6.00 Build 0)  -->
<svg version="1.1" id="Layer_1" xmlns="http://www.w3.org/2000/svg" xmlns:xlink="http://www.w3.org/1999/xlink" x="0px" y="0px"
	 viewBox="0 0 256.7 37.6" style="enable-background:new 0 0 256.7 37.6;" xml:space="preserve">
<style type="text/css">
	.st0{clip-path:url(#SVGID_2_);fill:#162E3B;}
	.st1{fill:#162E3B;}
	.st2{fill:#FFBF15;}
	.st3{fill:#FFFFFF;}
</style>
<g>
	<path class="st1" d="M55.9,26.6c-0.4-0.4-0.9-0.7-1.4-1c-0.5-0.3-1.1-0.5-1.6-0.7c-0.5-0.2-1.1-0.4-1.6-0.5c-0.5-0.2-1-0.3-1.4-0.5
		s-0.7-0.4-1-0.7c-0.2-0.3-0.4-0.6-0.4-1c0-0.6,0.2-1.1,0.6-1.5c0.4-0.4,1-0.5,1.9-0.5c0.5,0,0.9,0.1,1.3,0.2c0.4,0.1,0.7,0.3,1,0.4
		c0.3,0.2,0.6,0.3,0.8,0.4c0.2,0.1,0.5,0.2,0.7,0.2c0.2,0,0.4-0.1,0.6-0.2c0.1-0.1,0.3-0.3,0.4-0.5l1.1-2.1
		c-0.3-0.3-0.7-0.6-1.2-0.9c-0.4-0.3-0.9-0.5-1.4-0.7c-0.5-0.2-1-0.3-1.6-0.4c-0.6-0.1-1.1-0.1-1.7-0.1c-1.1,0-2,0.2-2.8,0.5
		c-0.8,0.3-1.5,0.8-2.1,1.3c-0.6,0.5-1,1.2-1.3,1.9c-0.3,0.7-0.4,1.4-0.4,2.1c0,0.9,0.1,1.7,0.4,2.3c0.2,0.6,0.6,1.1,1,1.5
		c0.4,0.4,0.9,0.7,1.4,1c0.5,0.3,1,0.5,1.6,0.6c0.5,0.2,1.1,0.3,1.6,0.5c0.5,0.1,1,0.3,1.4,0.5c0.4,0.2,0.7,0.4,1,0.7
		c0.2,0.3,0.4,0.7,0.4,1.1c0,0.8-0.2,1.4-0.7,1.7c-0.5,0.4-1.1,0.5-1.9,0.5c-0.6,0-1.1-0.1-1.6-0.3c-0.4-0.2-0.8-0.4-1.2-0.6
		c-0.3-0.2-0.6-0.4-0.9-0.6c-0.3-0.2-0.5-0.3-0.8-0.3c-0.2,0-0.4,0.1-0.6,0.2s-0.3,0.2-0.4,0.4L43.7,34c0.4,0.4,0.8,0.7,1.3,1
		c0.5,0.3,1.1,0.6,1.7,0.8c0.6,0.2,1.2,0.4,1.8,0.5s1.2,0.2,1.8,0.2c1.1,0,2.1-0.2,3-0.5c0.9-0.3,1.6-0.8,2.2-1.4
		c0.6-0.6,1-1.3,1.4-2c0.3-0.8,0.5-1.6,0.5-2.5c0-0.8-0.1-1.5-0.4-2.1C56.7,27.5,56.4,27,55.9,26.6z"/>
	<path class="st1" d="M76.8,19.6c-0.9-0.9-1.9-1.6-3.2-2.1c-1.2-0.5-2.6-0.8-4.1-0.8c-1.5,0-2.9,0.3-4.1,0.8
		c-1.2,0.5-2.3,1.2-3.2,2.1s-1.6,1.9-2.1,3.1c-0.5,1.2-0.7,2.5-0.7,3.9s0.2,2.7,0.7,3.9c0.5,1.2,1.2,2.3,2.1,3.2
		c0.9,0.9,1.9,1.6,3.2,2.1c1.2,0.5,2.6,0.8,4.1,0.8c1.5,0,2.9-0.3,4.1-0.8c1.2-0.5,2.3-1.2,3.2-2.1c0.9-0.9,1.6-1.9,2-3.2
		c0.5-1.2,0.7-2.5,0.7-3.9c0-1.4-0.2-2.7-0.7-3.9C78.3,21.5,77.6,20.5,76.8,19.6z M74.5,29.2c-0.2,0.8-0.6,1.4-1.1,2
		c-0.5,0.5-1,0.9-1.7,1.2c-0.7,0.3-1.4,0.4-2.3,0.4c-0.9,0-1.6-0.1-2.3-0.4c-0.7-0.3-1.3-0.7-1.7-1.2c-0.5-0.5-0.8-1.2-1.1-2
		c-0.2-0.8-0.4-1.6-0.4-2.6c0-1,0.1-1.8,0.4-2.6c0.2-0.8,0.6-1.4,1.1-2c0.5-0.5,1-0.9,1.7-1.2c0.7-0.3,1.5-0.4,2.3-0.4
		c0.9,0,1.6,0.1,2.3,0.4s1.2,0.7,1.7,1.2c0.5,0.5,0.8,1.2,1.1,2c0.2,0.8,0.4,1.6,0.4,2.6C74.9,27.6,74.8,28.5,74.5,29.2z"/>
	<path class="st1" d="M94.8,27.2c0,0.3,0,0.6,0,1c0,0.4,0,0.7,0.1,1.1l-9.2-11.7c-0.1-0.1-0.2-0.3-0.3-0.4c-0.1-0.1-0.2-0.2-0.3-0.2
		C84.9,17,84.8,17,84.7,17c-0.1,0-0.3,0-0.5,0h-2.4v19.4h4V25.9c0-0.3,0-0.6,0-0.9c0-0.3,0-0.7-0.1-1l9.1,11.6
		c0.2,0.3,0.5,0.5,0.7,0.6c0.2,0.1,0.5,0.2,0.9,0.2h2.3V16.9h-4V27.2z"/>
	<rect x="101.8" y="16.9" class="st1" width="4.5" height="19.4"/>
	<path class="st1" d="M115.9,16.9l-7.5,19.4h3.5c0.4,0,0.7-0.1,0.9-0.3c0.3-0.2,0.4-0.4,0.5-0.7l1.1-3.4h7.4l1.1,3.4
		c0.1,0.3,0.3,0.5,0.5,0.7c0.2,0.2,0.6,0.3,0.9,0.3h3.5l-7.5-19.4H115.9z M115.6,28.9l1.8-5.3c0.1-0.3,0.3-0.7,0.4-1.2
		c0.1-0.5,0.3-1,0.4-1.5c0.1,0.5,0.3,1,0.5,1.5c0.2,0.5,0.3,0.9,0.4,1.2l1.8,5.3H115.6z"/>
	<polygon class="st1" points="140.4,16.9 135.9,16.9 135.9,36.3 147.6,36.3 147.6,32.7 140.4,32.7 	"/>
	<path class="st1" d="M156.3,16.9l-7.5,19.4h3.5c0.4,0,0.7-0.1,0.9-0.3c0.3-0.2,0.4-0.4,0.5-0.7l1.1-3.4h7.4l1.1,3.4
		c0.1,0.3,0.3,0.5,0.5,0.7c0.2,0.2,0.6,0.3,0.9,0.3h3.5l-7.5-19.4H156.3z M156,28.9l1.8-5.3c0.1-0.3,0.3-0.7,0.4-1.2
		c0.1-0.5,0.3-1,0.4-1.5c0.1,0.5,0.3,1,0.5,1.5c0.2,0.5,0.3,0.9,0.4,1.2l1.8,5.3H156z"/>
	<polygon class="st1" points="182.9,25 175,25 175,16.9 170.5,16.9 170.5,36.3 175,36.3 175,28.1 182.9,28.1 182.9,36.3 187.4,36.3 
		187.4,16.9 182.9,16.9 	"/>
	<path class="st1" d="M203.9,31.3c-0.1,0-0.2-0.1-0.3-0.1c-0.1,0-0.3,0-0.4,0.1c-0.1,0.1-0.2,0.1-0.3,0.2c-0.3,0.2-0.5,0.4-0.8,0.6
		c-0.3,0.2-0.5,0.3-0.8,0.4c-0.3,0.1-0.6,0.2-0.9,0.2c-0.3,0-0.7,0.1-1.1,0.1c-0.7,0-1.4-0.1-2-0.4s-1.2-0.7-1.6-1.2
		c-0.5-0.5-0.8-1.2-1.1-2s-0.4-1.7-0.4-2.7c0-1,0.1-1.9,0.4-2.6c0.2-0.8,0.6-1.4,1-1.9c0.4-0.5,1-0.9,1.6-1.2c0.6-0.3,1.3-0.4,2-0.4
		c0.5,0,0.9,0,1.2,0.1c0.4,0.1,0.7,0.2,0.9,0.3c0.3,0.1,0.5,0.2,0.7,0.3c0.2,0.1,0.4,0.2,0.5,0.3s0.3,0.2,0.5,0.3
		c0.1,0.1,0.3,0.1,0.5,0.1c0.2,0,0.4-0.1,0.6-0.2c0.1-0.1,0.2-0.2,0.3-0.3l1.5-2c-0.4-0.4-0.8-0.7-1.3-1c-0.5-0.3-1-0.6-1.5-0.8
		c-0.6-0.2-1.2-0.4-1.8-0.5c-0.6-0.1-1.3-0.2-2.1-0.2c-1.4,0-2.7,0.2-3.9,0.7c-1.2,0.5-2.2,1.2-3.1,2.1c-0.9,0.9-1.5,1.9-2,3.1
		c-0.5,1.2-0.7,2.5-0.7,4c0,1.4,0.2,2.7,0.7,3.9c0.4,1.2,1.1,2.3,1.9,3.1c0.8,0.9,1.8,1.6,3,2.1c1.2,0.5,2.5,0.8,4,0.8
		c1.6,0,3-0.3,4.2-0.8c1.2-0.5,2.2-1.3,2.9-2.3l-1.8-1.9C204.1,31.4,204,31.3,203.9,31.3z"/>
	<polygon class="st1" points="208.5,36.3 221,36.3 221,32.9 213,32.9 213,28.3 219.1,28.3 219.1,24.9 213,24.9 213,20.4 221,20.4 
		221,16.9 208.5,16.9 	"/>
	<path class="st1" d="M237,27.1c0,0.3,0,0.6,0,1c0,0.4,0,0.7,0.1,1.1l-9.2-11.7c-0.1-0.2-0.2-0.3-0.3-0.4c-0.1-0.1-0.2-0.2-0.3-0.2
		c-0.1,0-0.2-0.1-0.4-0.1c-0.1,0-0.3,0-0.5,0H224v19.4h4V25.8c0-0.3,0-0.6,0-0.9s0-0.7-0.1-1l9.1,11.6c0.2,0.3,0.5,0.5,0.7,0.6
		c0.2,0.1,0.5,0.2,0.9,0.2h2.3V16.8h-4V27.1z"/>
	<polygon class="st1" points="256.7,20.4 256.7,16.9 244.2,16.9 244.2,36.3 256.7,36.3 256.7,32.9 248.7,32.9 248.7,28.3 
		254.8,28.3 254.8,24.9 248.7,24.9 248.7,20.4 	"/>
	<path class="st1" d="M11,35.3c-0.1,0.1-0.2,0.2-0.2,0.3C10.8,35.5,10.9,35.4,11,35.3C11,35.4,11,35.3,11,35.3z"/>
	<path class="st1" d="M50.8,3.8c1.1-0.4,2.3-0.6,3.5-0.8c0.9-0.2,1.8-0.4,2.7-0.5c0.5-0.1,1-0.2,1.5-0.3c0,0,0,0,0.1,0
		c0,0,0.1,0,0.1,0l0,0C58.8,2.1,59,2,59.1,1.9c0.1,0,0.2-0.1,0.3-0.1c0.1,0,0.1-0.1,0.1-0.1c0,0,0,0,0,0c0,0,0,0,0-0.1l0,0l0,0
		c0,0,0,0,0,0c0,0,0.1,0,0.1,0c0,0,0,0-0.1,0c0,0-0.1,0-0.1,0c0,0,0,0,0,0c0,0,0-0.1-0.1-0.1c0,0,0,0,0,0c0.1,0,0.2,0.1,0.3,0.2
		c-1.4-0.8-2.7-0.5-4.2-0.3c-1.1,0.2-2.1,0.3-3.2,0.6c-1.5,0.4-2.9,0.8-4.4,1.2c-1.2,0.3-3,0.8-4.3,0.4c-0.3-0.1-0.6-0.2-0.9-0.4
		c-0.4-0.1-0.9-0.3-1.3-0.4c0-0.1,0-0.1,0.1-0.2c-0.1,0.1-0.3,0.1-0.5,0.3c0-0.1,0.2-0.2,0.3-0.3c-0.3,0.1-0.6,0.1-0.9,0
		c-0.6,0-1.2,0-1.8,0.1c-1,0.2-1.9,0.7-2.7,1.4c-0.7,0.6-1.4,1.2-1.9,2c-0.5,0.7-1,1.5-1.6,2.2c-0.8,0.8-2,1.6-3.2,1.6
		c-0.8,0-1.3-0.5-2-0.8c-0.7-0.3-1.4-0.5-2.1-0.9c-1.3-0.7-2.6-1.6-3.8-2.5c-3.3-2.4-7.2-4.4-11.2-5.1C8,0.2,6-0.1,4.1,0
		C2.7,0.1,1.6,0.5,0.7,1.4c-0.1,0-0.1,0.1-0.2,0.1c0,0-0.1,0.1-0.2,0.2C0.1,1.8,0,2,0,2.3c0,0.3,0.3,0.6,0.3,0.6
		C0.2,3.5,0.1,4,0.1,4s0,0,0.2,0.4c0.3,0.5,0.9,1.1,1.4,1.2c0,0,0,0,0,0C1.6,6.2,2.9,7,3.3,7.3c0.3,0.1,0.6,0.3,0.9,0.2c0,0,0,0,0,0
		C4.1,8,4.4,8.3,4.8,8.6c0,0.7,0,0.9,0.5,1.3c0.4,0.4,0.6,0.6,1.1,0.6c0.1,0,0.8,1.1,1,1.2c0.4,0.4,1,0.5,1.5,0.7
		c0,0.7,1.2,1.3,1.7,1.3c0.1,0.8,1.4,1.5,2.1,1.4c0,0,0,0,0,0c0.3,0.6,0.7,1.1,1.3,1.4c0.2,0.1,0.8,0.2,0.9,0.3
		c0.2,0.2-0.1,0.3,0.1,0.5c0.2,0.3,2.1,1.3,2.4,1c0,0,0,0,0,0c0,0.2,0.2,0.4,0.4,0.6c0,0,0,0,0,0c0,0,0,0,0.1,0
		c0.3,0.2,0.6,0.3,0.8,0.3c-1.3,1-3.1,3.5-3.1,3.5c-0.5,0.7-1,1.3-1.6,1.9c-0.3,0.3-0.6,0.6-0.9,0.9c-0.2,0.1-0.3,0.3-0.5,0.4
		c0,0-0.3,0.3-0.2,0.3c-0.1,0-0.2-0.2-0.2-0.1c-0.1,0,0,0.2,0,0.3c0-0.1-0.1,0-0.1-0.1c-0.1,0.1-0.1,0.2-0.1,0.2c0-0.1,0-0.2,0-0.3
		c0,0.1-0.1,0.2-0.1,0.4c0,0-0.1,0-0.2,0c0,0,0,0.1,0,0.1c-0.1,0-0.1,0-0.2-0.1c0,0,0,0.1,0,0.1c0,0-0.1,0-0.1-0.1
		c0,0.1,0,0.1,0,0.2c0,0-0.1,0-0.1-0.1c0,0,0,0.1,0,0.1c0,0-0.1,0-0.1,0c0,0.1,0,0.2,0,0.2c0,0-0.1-0.1-0.2-0.2
		c0,0.1-0.1,0.3-0.1,0.4c0,0,0-0.1,0-0.1c-0.1,0.1-0.1,0.2-0.2,0.3c0-0.1,0-0.2,0-0.3c-0.1,0.2-0.4,0.4-0.5,0.5
		c-0.2,0.2-0.4,0.4-0.6,0.5c-0.4,0.3-0.7,0.6-1.1,0.9c-0.6,0.5-1.1,1-1.6,1.5c-0.2,0.1-0.3,0.2-0.5,0.3c-0.1,0.1-0.2,0.1-0.2,0.2
		c-0.2,0.2-0.3,0.4-0.4,0.6c0,0,0,0,0,0c-0.1,0.1-0.1,0.2-0.2,0.3c0,0,0,0,0,0c0,0-0.1,0-0.1,0c-0.1,0-0.1,0.1-0.1,0.1
		c0.1-0.1,0.2-0.2,0.2-0.2c-0.1,0.1-0.2,0.2-0.3,0.3c0,0-0.1,0.1-0.1,0.1c0,0,0,0,0,0c0,0,0,0,0,0l0,0c0.2,0.2-0.8,0.6-0.9,1.1
		c-0.2,0.5-0.3,1-0.3,1l0.4-0.2c0,0,0,0.1,0,0.1c0,0,0,0,0,0c0,0,0,0.1,0,0.1c0,0,0,0,0.1,0c0,0.2-0.1,0.5-0.3,0.6
		c0.3,0.1,0.8,0.3,0.3,0.5c0.1,0,0.1,0,0.2,0c0,0-0.1,0.1-0.2,0.1c0,0,0.1,0,0.1,0c-0.1,0-0.4,0.1-0.4,0.1c0.1,0,0.2,0,0.3,0
		c0,0,0,0.1,0,0.1c-0.1,0.1-0.2,0.1-0.3,0.1c0.1,0,0.2,0,0.3,0c0,0.2-0.1,0.3-0.3,0.4c0,0,0.4,0.1,0.4,0.1c-0.1,0.1-0.1,0.2-0.1,0.4
		c0.1-0.1,0.1-0.1,0.1-0.2c0,0.1,0,0.1,0,0.2c0,0,0-0.1,0-0.2c0-0.1,0-0.1,0.1-0.1c0,0.1,0.1,0.2,0.2,0.3c0-0.1,0-0.2,0.1-0.3
		c0,0.1,0,0.1,0,0.1c-0.1-0.2,0.2-0.3,0.3-0.3c0.1,0.1,0.1,0.3,0.1,0.4c0,0.1,0,0.1,0,0.2c0.1,0,0.2-0.1,0.3-0.1
		c0,0.1,0.1,0.1,0.1,0.2c0.1-0.1,0.1-0.3,0.1-0.4C5.9,37.2,6,37.4,6,37.5c0-0.1,0-0.3,0-0.4c0.1,0.1,0.1,0.1,0.1,0.2
		c0-0.1,0-0.2,0-0.2c0.1,0,0.1,0.1,0.2,0.2c0-0.2,0.4-0.6,0.6-0.7C7,36.7,7,36.8,7.1,37c0-0.2,0-0.4,0-0.6c0.3-0.1,0.5-0.2,0.8-0.3
		C8,36,8.4,35.7,8.4,36c0-0.1,0-0.3,0-0.4c0.1,0,0.1,0.1,0.2,0.1c0,0,0-0.1,0-0.2c0,0.1,0.1,0.2,0.2,0.2c0-0.1,0-0.3,0.1-0.3
		c0,0,0.1,0.1,0.1,0.1c0-0.1,0-0.2,0.1-0.2c0,0.1,0.1,0.2,0.1,0.3c0-0.3-0.1-0.3,0.2-0.5c0.2-0.1,0.4-0.2,0.6-0.3
		c0.2-0.2,0.5-0.4,0.7-0.6c0.7-0.4,1.3-0.9,1.9-1.3c1.1-0.8,2.2-1.6,3.2-2.4c0,0,0,0,0,0c0,0,0,0,0,0c0,0,0.1,0,0.1-0.1
		c0,0.1,0.1,0.3,0.1,0.4c0.1-0.2,0.2-0.2,0.3-0.4c0.1,0.2,0.1,0.1,0.2,0.2c-0.1-0.1,0.2-0.3,0.3-0.4c0,0,0,0,0,0
		c0,0.2,0,0.4,0.1,0.5c0.1-0.3,0.4-0.6,0.6-0.2c0.1-0.2,0.2-0.2,0.4-0.3c0,0.1,0.1,0.3,0.1,0.4c0.1-0.3,0.3-0.5,0.5-0.6
		c0,0,0,0.2,0,0.3c0.1-0.1,0.2-0.2,0.2-0.3c0,0.1,0.1,0.1,0.2,0.3c0.2-0.3,0.7-0.7,1.1-0.8c0,0,0,0,0,0C20,29.8,20,30,19.9,30.1
		c0-0.1,0.2-0.1,0.2-0.1c0,0.1,0,0.3,0,0.4c0.1-0.1,0.3-0.1,0.4-0.2c-0.1,0.1,0,0.3-0.1,0.5c0.3-0.3,0.5-0.5,0.8-0.8
		c0.1-0.1,0.2-0.2,0.3-0.3c0,0,0.1-0.1,0.1-0.1c-0.1,0.1-0.1,0.3-0.1,0.4c0.1-0.2,0.3-0.3,0.5-0.4c0,0.1,0.1,0.2,0.1,0.3
		c0.1-0.4,0.2-0.8,0.2-1.2c0,0.1,0.1,0.2,0.1,0.3c0,0,0-0.1,0-0.1c0,0.2,0.2,0.3,0.2,0.5c0.1,0,0.1,0,0.1-0.1c0.2,0.3,0.2,0.7,0.3,1
		c0-0.2,0.1-0.2,0.2-0.4c0,0.1,0,0.1,0,0.2c0.1-0.2,0.2-0.2,0.3-0.3c0,0.1,0.1,0.2,0.2,0.2c0.1-0.2,0.2-0.3,0.4-0.5
		c0,0.4-0.1,0.8,0.2,1c0-0.5,0.2-1,0.4-1.4c0,0,0.1,0,0.1,0c0,0.2,0,0.4,0.1,0.6c0-0.1,0.1-0.3,0.2-0.4c0,0.1,0.1,0.2,0.1,0.3
		c0.2-0.2,0.3-0.4,0.4-0.7c0.5,0.1,1.1,1,1.4,1.3c0-0.1,0.1-0.2,0.1-0.2c0.6,0.4,1-0.4,1.2-0.9c0,0,0,0,0-0.1
		c0.1-0.2,0.2-0.5,0.3-0.7c0-0.1-0.1-0.5-0.2-0.7c0.1-0.1,0.1-0.3,0.3-0.4c0.3,0.1,0.3,0.4,0.3,0.7c0.2-0.5,0.4-1,0.7-1.5
		c0,0.1,0,0.2,0,0.3c0.2-0.2,0.3-0.4,0.5-0.6c0,0.1,0.1,0.1,0.2,0.2c0-0.3,0.2-0.4,0.4-0.2c0-0.1,0-0.3,0-0.4c0,0,0.1,0.1,0.1,0.1
		c0-0.1,0.1-0.2,0.1-0.3c0,0.1,0.1,0.1,0.2,0.2c-0.2-0.9,1.4-2.2,2.1-2.7c0.9-0.7,2.4-3.6,2.6-4.2c0.3-0.8,1.1-1.3,1.5-2.1
		c0,0.1,0,0.2,0.1,0.3c0-0.1,0-0.3,0-0.5c0,0.1,0.1,0.1,0.1,0.2c0-0.5,0.7-1.2,1-1.6c0.5-0.6,0.9-1.3,1.6-1.7
		c0.7-0.4,1.2-1.1,1.7-1.7c0.5-0.6,0.7-1,1-1.7c0.1,0.1,0.1,0.1,0.1,0.2c0-0.1,0-0.1,0-0.2c0,0,0.1,0,0.1,0c0,0,0-0.1,0-0.1
		c0,0,0.1,0,0.2,0c0-0.1,0-0.3,0.1-0.4c0,0,0.1,0.1,0.1,0.1c0-0.1,0-0.2,0.1-0.3c0,0,0.1,0.1,0.1,0.1c0.1-0.2,0-0.4,0.2-0.3
		c0,0.1,0.1,0.1,0.1,0.2c0-0.2-0.1-0.5-0.1-0.7c0,0,0,0.1,0.1,0.1c0-0.1,0-0.2,0.1-0.3c0,0,0.1,0.1,0.1,0.1c0-0.2,0-0.4,0-0.6
		c0,0,0,0,0-0.1c0.1,0,0.1,0,0.2,0c0,0,0-0.1,0-0.1C44.8,7.7,44.9,7.8,45,8c0-0.4-0.1-0.7,0.1-1c0.5-0.9,1.7-1.4,2.6-1.9
		C48.6,4.4,49.7,4.1,50.8,3.8z M57.5,1.2C57.5,1.2,57.5,1.2,57.5,1.2c-0.2,0-0.4,0-0.6,0.1c-0.1,0-0.1,0-0.2,0
		C57,1.2,57.2,1.2,57.5,1.2z M20.4,29.8L20.4,29.8C20.4,29.8,20.5,29.8,20.4,29.8C20.5,29.8,20.5,29.8,20.4,29.8
		C20.5,29.8,20.5,29.8,20.4,29.8z M24.5,29.2C24.5,29.2,24.5,29.1,24.5,29.2c0-0.1,0-0.1,0-0.1C24.5,29.1,24.5,29.2,24.5,29.2z
		 M25.3,29c0,0,0-0.1,0-0.1C25.3,28.9,25.3,28.9,25.3,29C25.3,29,25.3,29,25.3,29z M42.2,11.2C42.2,11.2,42.2,11.2,42.2,11.2
		C42.2,11.2,42.2,11.2,42.2,11.2C42.2,11.2,42.2,11.2,42.2,11.2z"/>
</g>
</svg>
