<?xml version="1.0" encoding="utf-8"?>
<!-- Generator: Adobe Illustrator 19.2.0, SVG Export Plug-In . SVG Version: 6.00 Build 0)  -->
<svg version="1.1" id="Layer_1" xmlns="http://www.w3.org/2000/svg" xmlns:xlink="http://www.w3.org/1999/xlink" x="0px" y="0px"
	 viewBox="0 0 14 14" style="enable-background:new 0 0 14 14;" xml:space="preserve">
<style type="text/css">
	.st0{clip-path:url(#SVGID_2_);fill:#162E3B;}
	.st1{fill:#162E3B;}
	.st2{fill:#FFBF15;}
	.st3{fill:#FFFFFF;}
</style>
<g>
	<path class="st1" d="M7,0C3.1,0,0,3.1,0,7c0,3.9,3.1,7,7,7c3.9,0,7-3.1,7-7C14,3.1,10.9,0,7,0z M11.5,10.2c0,0.3-0.2,0.6-0.6,0.6
		H3.3c0,0-0.1,0-0.1,0c-0.2,0-0.4,0-0.5-0.1c-0.1-0.1-0.2-0.2-0.2-0.4V3.8c0-0.3,0.2-0.6,0.6-0.6h7.8c0.3,0,0.6,0.2,0.6,0.6V10.2z"
		/>
	<path class="st1" d="M7,7.7c-0.1,0-0.2,0-0.3-0.1L3.7,5.1v4.6h6.7V5.1L7.3,7.6C7.2,7.7,7.1,7.7,7,7.7z"/>
	<polygon class="st1" points="3.7,5.1 3.7,5.1 3.7,5.1 	"/>
</g>
</svg>
