<?xml version="1.0" encoding="utf-8"?>
<!-- Generator: Adobe Illustrator 19.2.0, SVG Export Plug-In . SVG Version: 6.00 Build 0)  -->
<svg version="1.1" id="Layer_1" xmlns="http://www.w3.org/2000/svg" xmlns:xlink="http://www.w3.org/1999/xlink" x="0px" y="0px"
	 viewBox="0 0 20.7 19.3" style="enable-background:new 0 0 20.7 19.3;" xml:space="preserve">
<style type="text/css">
	.st0{clip-path:url(#SVGID_2_);fill:#162E3B;}
	.st1{fill:#162E3B;}
	.st2{fill:#FFBF15;}
	.st3{fill:#FFFFFF;}
	.st4{fill:none;stroke:#162E3B;stroke-width:3;stroke-linecap:round;stroke-miterlimit:10;}
</style>
<g>
	<path class="st1" d="M16.7,11.6l-6,4.1l-6-4.1C4,11.1,3.1,11.3,2.6,12c-0.5,0.7-0.3,1.6,0.4,2.1l7.7,5.3l7.7-5.3
		c0.7-0.5,0.9-1.4,0.4-2.1C18.3,11.3,17.3,11.1,16.7,11.6z"/>
	<path class="st1" d="M20.4,0.6c-0.5-0.7-1.4-0.8-2.1-0.3l-7.9,6.1L2.4,0.3C1.8-0.2,0.8-0.1,0.3,0.6c-0.5,0.7-0.4,1.6,0.3,2.1
		l9.8,7.5l9.8-7.5C20.8,2.2,20.9,1.2,20.4,0.6z"/>
</g>
</svg>
